PathFileType	4	(X/Y/Z)	C:/Users/opensim2020/Desktop/walking_exp_matlab/subject06_cal10_run.trc																																																																																																																																																	
DataRate	CameraRate	NumFrames	NumMarkers	Units	OrigDataRate	OrigDataStartFrame	OrigNumFrames																																																																																																																																													
100	100	7	49	mm	100	213	118																																																																																																																																													
Frame#	Time	LKNE			RTIB			RFRM			RWRA			LTHI			RKNE			RELB			RFHD			LWRA			RUPA			STRN			RASI			CLAV			RSHO			LASI			RTHI			RBHD			LBHD			C7			RWRB			RFIN			RTOE			LSHO			RBAK			LTIB			RANK			LFIN			LANK			RHEE			T10			LHEE			LTOE			LFHD			LPSI			RPSI			LUPA			LELB			LFRM			LWRB			*39			*40			*41			*42			*43			*44			*45			*46			*47			*48		
		X1	Y1	Z1	X2	Y2	Z2	X3	Y3	Z3	X4	Y4	Z4	X5	Y5	Z5	X6	Y6	Z6	X7	Y7	Z7	X8	Y8	Z8	X9	Y9	Z9	X10	Y10	Z10	X11	Y11	Z11	X12	Y12	Z12	X13	Y13	Z13	X14	Y14	Z14	X15	Y15	Z15	X16	Y16	Z16	X17	Y17	Z17	X18	Y18	Z18	X19	Y19	Z19	X20	Y20	Z20	X21	Y21	Z21	X22	Y22	Z22	X23	Y23	Z23	X24	Y24	Z24	X25	Y25	Z25	X26	Y26	Z26	X27	Y27	Z27	X28	Y28	Z28	X29	Y29	Z29	X30	Y30	Z30	X31	Y31	Z31	X32	Y32	Z32	X33	Y33	Z33	X34	Y34	Z34	X35	Y35	Z35	X36	Y36	Z36	X37	Y37	Z37	X38	Y38	Z38	X39	Y39	Z39	X40	Y40	Z40	X41	Y41	Z41	X42	Y42	Z42	X43	Y43	Z43	X44	Y44	Z44	X45	Y45	Z45	X46	Y46	Z46	X47	Y47	Z47	X48	Y48	Z48	X49	Y49	Z49
																																																																																																																																																				
45	0.44	-226.9491	559.3595	105.28537	-723.65881	271.61383	330.3736	-325.58755	1072.8938	481.52365	-270.97177	1126.43213	363.30017	-325.19513	679.9566	66.39689	-552.55145	475.68634	352.0567	-398.90515	1094.97363	549.77142	-303.54361	1623.32483	345.90057	-407.83707	1098.94617	47.62888	-407.53143	1199.34509	530.7865	-320.41626	1160.15295	239.08154	-406.63138	915.62653	353.94925	-333.99216	1343.44373	255.26921	-364.98169	1374.18713	417.41348	-379.86377	934.76215	140.18439	-532.86243	600.69934	381.12616	-435.20065	1571.19836	341.92584	-437.39835	1581.06934	212.86821	-438.95172	1430.33972	268.10312	-236.93527	1074.94299	386.505	-189.59413	1128.52356	352.06192	-739.8017	30.12258	241.64052	-409.40656	1404.7804	108.92959	-524.5545	1271.00208	344.97348	-345.06393	352.56253	99.09309	-845.57397	136.09418	274.34753	-342.43802	1031.52051	34.70233	-433.5921	201.4153	126.60815	-890.79327	149.07561	234.82668	-521.11139	1114.44421	250.95065	-482.28311	198.0089	169.09805	-312.23907	133.11983	133.01996	-304.92493	1638.96582	214.04082	-533.42529	987.68384	148.23044	-542.69421	980.56281	316.06503	-525.32343	1288.42407	3.80707	-594.41949	1219.55774	-35.08749	-510.22922	1117.34644	-30.28353	-429.7699	1042.56567	10.11911	NaN	NaN	NaN	NaN	NaN	NaN	-405.8989	1672.63586	275.37366	NaN	NaN	NaN	NaN	NaN	NaN	NaN	NaN	NaN	NaN	NaN	NaN	NaN	NaN	NaN	NaN	NaN	NaN	NaN	NaN	NaN
46	0.45	-183.84792	573.40375	106.13873	-706.59308	286.46268	333.06024	-283.94711	1088.47949	478.79837	-234.43245	1146.44006	360.47186	-283.32309	693.62726	68.67603	-528.82928	486.68549	352.62134	-355.06396	1106.12988	549.84943	-264.65866	1631.74927	343.70258	-377.09119	1108.71985	45.80024	-363.93124	1209.74695	530.03326	-282.96701	1169.50195	238.47479	-363.49161	923.35565	353.98862	-297.2782	1352.41553	253.90678	-325.17679	1384.38379	416.00424	-339.93588	945.19611	140.94142	-499.70963	609.52869	381.61554	-396.81522	1581.06348	340.271	-399.26935	1590.65356	211.16931	-401.99152	1438.76465	268.39053	-198.01181	1096.05005	381.59753	-153.83723	1152.28284	346.76746	-739.08807	30.09148	241.56693	-375.75906	1413.8313	109.55331	-484.83868	1279.18481	347.80176	-285.22653	355.99377	102.03927	-829.25305	151.97853	280.06458	-312.36801	1040.49695	31.2625	-363.27621	199.44252	132.1272	-871.53473	166.63943	240.76323	-481.25211	1121.74829	254.72385	-413.4057	195.13704	173.03624	-239.44084	134.65329	146.33701	-266.30194	1647.0979	211.8943	-493.92178	996.56494	151.39992	-500.33008	988.02808	319.35001	-493.75308	1299.39185	6.36202	-564.38141	1231.56677	-31.30055	-481.23407	1128.76953	-29.68001	-400.15411	1053.1427	7.96513	NaN	NaN	NaN	NaN	NaN	NaN	-366.65689	1682.08032	273.40503	NaN	NaN	NaN	NaN	NaN	NaN	NaN	NaN	NaN	NaN	NaN	NaN	NaN	NaN	NaN	NaN	NaN	NaN	NaN	NaN	NaN
47	0.46	-141.84052	586.11542	107.51685	-686.38031	301.83185	336.61859	-243.17116	1103.48169	476.42239	-198.18182	1164.75952	358.31433	-242.41377	706.5874	70.93774	-503.07977	498.76617	353.63971	-312.03088	1117.61536	549.86029	-225.57091	1640.39465	341.39877	-345.23175	1118.69592	44.92719	-321.98187	1220.77087	528.82843	-244.6227	1179.28027	237.28458	-319.45316	931.71423	353.58807	-260.5387	1361.70654	252.50371	-285.49155	1394.76624	414.35593	-299.65674	956.05347	141.52379	-465.64716	618.9624	382.28488	-358.26889	1591.42542	338.51373	-360.97134	1600.62317	209.41245	-364.72717	1447.78699	268.63144	-159.89778	1115.40674	377.42087	-118.41763	1173.46643	342.21808	-738.26923	29.43504	242.48759	-341.62149	1423.0592	110.25947	-444.99918	1287.82227	350.43787	-226.35727	359.1181	105.94454	-808.11322	165.83984	286.55432	-281.1608	1049.92188	29.11073	-293.71814	197.791	138.48608	-847.30304	183.37015	247.00984	-441.88049	1129.92114	258.79535	-344.87024	192.974	178.06702	-168.35687	135.37126	160.0779	-227.51753	1655.40112	209.67343	-453.81155	1005.87091	155.11578	-457.0444	995.6358	322.5986	-461.26913	1310.31531	8.82323	-533.27924	1243.03735	-27.58839	-450.88751	1139.77954	-28.52378	-369.14743	1063.86218	6.79075	NaN	NaN	NaN	NaN	NaN	NaN	-327.1265	1691.87842	271.23676	NaN	NaN	NaN	NaN	NaN	NaN	NaN	NaN	NaN	NaN	NaN	NaN	NaN	NaN	NaN	NaN	NaN	NaN	NaN	NaN	NaN
48	0.47	-101.06879	596.98688	108.84518	-662.67383	316.37817	341.99438	-203.27255	1117.4657	474.58618	-162.78503	1180.89319	355.69147	-202.87753	717.95099	72.82098	-476.05093	511.04764	354.77902	-270.00641	1129.25769	550.11719	-186.37396	1648.56311	339.06476	-312.44797	1128.60693	44.99992	-280.50696	1232.28711	527.95428	-206.08862	1189.14624	236.10732	-275.04291	940.69318	352.90009	-223.81427	1370.87219	251.16476	-246.03381	1405.04443	412.57031	-259.39664	966.69928	142.07341	-431.48868	628.4696	383.00977	-319.68436	1601.60938	336.76215	-322.55148	1610.43909	207.56575	-326.983	1456.8175	268.69626	-122.34461	1132.71106	373.94373	-82.74663	1192.19177	338.57623	-733.23602	32.18531	243.99937	-306.92813	1431.9939	110.96318	-405.04657	1296.52405	352.92673	-168.8446	361.55237	110.33111	-783.35278	177.39601	293.91782	-248.77307	1059.39722	28.0003	-225.72636	196.6467	145.61053	-819.35651	199.93529	254.75655	-402.35056	1138.32483	262.95084	-277.45026	191.39069	184.37149	-99.68898	135.13472	173.8214	-188.38885	1663.22986	207.49945	-413.08594	1015.08472	159.16927	-413.20517	1003.20764	325.5946	-428.05209	1320.85815	11.17783	-501.12726	1253.79773	-24.10892	-419.16397	1150.54187	-26.90306	-336.95529	1074.58191	6.29497	NaN	NaN	NaN	NaN	NaN	NaN	-287.28818	1701.552	269.02936	NaN	NaN	NaN	NaN	NaN	NaN	NaN	NaN	NaN	NaN	NaN	NaN	NaN	NaN	NaN	NaN	NaN	NaN	NaN	NaN	NaN
49	0.48	-61.63188	605.50806	109.8837	-636.22644	329.92752	347.13	-164.00777	1130.2323	473.16483	-125.53941	1196.76477	355.37262	-164.16519	727.59174	74.4088	-448.09384	522.86597	356.78351	-228.90981	1140.3064	550.61523	-147.2285	1655.61926	336.6893	-278.75299	1138.11572	45.69729	-239.61685	1243.99951	527.50568	-166.93582	1198.58606	234.92465	-231.16533	949.56775	352.17636	-187.14825	1379.49463	249.90063	-206.97003	1414.62683	410.4418	-219.82802	976.39532	142.72737	-397.87881	638.2533	384.14261	-281.13635	1610.80688	334.84149	-284.08447	1619.31287	205.57242	-288.99341	1465.24219	268.58322	-85.10323	1147.80957	371.07477	-46.43635	1207.92261	335.23935	-722.89703	39.10802	246.81842	-271.53757	1440.27661	111.67194	-364.98996	1304.72986	355.21219	-113.09544	363.24719	114.83492	-756.67096	190.12704	300.17847	-215.49475	1068.77112	27.70482	-159.54343	195.53072	152.94119	-790.51123	216.69328	262.4194	-362.96222	1146.521	266.99271	-211.16222	189.84668	190.75244	-31.15519	135.35133	187.11609	-149.24918	1670.07129	205.2252	-372.46933	1023.87769	163.28387	-369.39081	1010.26984	328.89209	-394.11929	1330.67932	13.45112	-468.20804	1263.60315	-20.8226	-386.48364	1160.82507	-24.9714	-303.47992	1084.80847	6.61412	NaN	NaN	NaN	NaN	NaN	NaN	-247.34007	1710.25134	266.75494	NaN	NaN	NaN	NaN	NaN	NaN	NaN	NaN	NaN	NaN	NaN	NaN	NaN	NaN	NaN	NaN	NaN	NaN	NaN	NaN	NaN
50	0.49	-23.04622	611.6684	110.70432	-607.84705	342.2099	350.30701	-125.16115	1141.55212	472.27591	-88.47124	1210.02686	354.79929	-125.61185	735.35114	75.75593	-418.69077	534.11456	359.13205	-188.41293	1150.30444	551.24152	-108.13696	1661.49158	334.44489	-244.3624	1146.88171	47.04076	-199.36679	1255.01038	527.31207	-127.87938	1207.06372	233.89803	-188.5569	957.79291	350.94644	-150.31393	1387.14844	248.78041	-168.25667	1423.67078	408.37534	-180.28114	984.69073	143.48715	-364.2164	647.70557	385.3566	-242.6998	1618.37219	332.8064	-245.68509	1626.62842	203.52496	-251.0199	1472.43066	268.32205	-47.94853	1160.53711	368.60709	-10.01689	1220.79504	331.49271	-709.90344	48.32983	251.72435	-235.53238	1447.57239	112.3645	-325.19302	1312.02429	357.41772	-60.71316	364.70313	118.71159	-728.20044	204.10188	305.79892	-181.21332	1077.56482	28.14932	-95.38653	194.20818	159.89525	-760.17999	233.44276	269.30853	-323.64465	1154.1864	270.72931	-146.97847	188.32231	197.34079	34.34645	135.1306	199.3318	-110.27288	1675.71216	202.86298	-332.07269	1031.63635	167.19069	-326.34393	1016.56927	332.60922	-359.55756	1339.43396	15.55905	-434.6778	1272.38672	-17.80653	-352.72562	1170.14868	-22.79784	-269.40762	1094.18286	7.37969	NaN	NaN	NaN	NaN	NaN	NaN	-207.63472	1717.3363	264.49738	NaN	NaN	NaN	NaN	NaN	NaN	NaN	NaN	NaN	NaN	NaN	NaN	NaN	NaN	NaN	NaN	NaN	NaN	NaN	NaN	NaN
51	0.5	14.38582	615.44293	111.45852	-577.11298	353.17328	352.91083	-86.64438	1151.04797	471.78619	-50.7463	1221.23083	354.88239	-87.46544	740.93683	76.74902	-385.8233	543.5473	360.72061	-148.40764	1158.98108	552.1311	-69.28551	1666.60034	332.26529	-209.41425	1154.80542	48.71387	-159.82256	1264.77783	526.80664	-89.06598	1214.09351	233.28291	-146.80423	964.61969	350.75607	-113.19017	1393.69592	247.67046	-129.79579	1431.59583	406.41309	-141.24582	991.2984	144.21033	-329.34369	656.71082	387.0394	-204.09004	1624.35291	330.73224	-207.22359	1632.46069	201.4416	-213.21629	1478.25269	267.99744	-10.95329	1170.65479	366.56375	27.17269	1230.72998	328.71658	-692.96887	57.27689	257.12735	-198.91066	1453.6936	112.91394	-285.62238	1318.37085	359.53516	-11.72256	364.91296	122.32641	-699.43396	218.48984	309.94418	-146.34946	1085.71826	29.08328	-33.47098	192.48346	166.37024	-729.60992	249.26585	273.72021	-284.27115	1161.13086	273.86765	-84.19619	186.11574	203.43454	97.48072	135.15408	210.25029	-71.49486	1680.60083	200.46475	-292.19388	1037.87329	170.83873	-284.31824	1022.15448	336.27969	-324.34756	1346.88611	17.2934	-400.47324	1279.89832	-15.04208	-318.38263	1178.21582	-20.54741	-234.43118	1102.47327	8.72903	NaN	NaN	NaN	NaN	NaN	NaN	-168.43445	1722.85864	262.27603	NaN	NaN	NaN	NaN	NaN	NaN	NaN	NaN	NaN	NaN	NaN	NaN	NaN	NaN	NaN	NaN	NaN	NaN	NaN	NaN	NaN
